<?xml version="1.0" standalone="no"?>
<!DOCTYPE svg PUBLIC "-//W3C//DTD SVG 20010904//EN"
 "http://www.w3.org/TR/2001/REC-SVG-20010904/DTD/svg10.dtd">
<svg version="1.0" xmlns="http://www.w3.org/2000/svg"
 width="700.000000pt" height="700.000000pt" viewBox="0 0 700.000000 700.000000"
 preserveAspectRatio="xMidYMid meet">
<metadata>
Created by potrace 1.11, written by Peter Selinger 2001-2013
</metadata>
<g transform="translate(0.000000,700.000000) scale(0.100000,-0.100000)"
fill="#000000" stroke="none">
<path d="M3299 6996 c-2 -2 -42 -6 -89 -9 -399 -28 -846 -149 -1227 -333 -709
-344 -1280 -911 -1626 -1616 -133 -273 -241 -595 -293 -873 -9 -49 -17 -97
-19 -105 -2 -9 -6 -43 -10 -75 -4 -33 -9 -69 -11 -80 -19 -100 -26 -557 -11
-710 8 -81 24 -206 33 -260 3 -16 7 -43 9 -59 3 -15 7 -35 9 -45 3 -9 8 -31
11 -49 4 -26 34 -145 79 -312 28 -104 120 -338 192 -487 408 -841 1132 -1486
2009 -1791 209 -72 502 -141 670 -158 33 -3 63 -8 66 -10 29 -17 547 -25 714
-10 377 33 749 128 1100 281 119 52 300 144 355 181 19 13 38 24 42 24 25 0
408 279 508 370 121 111 242 234 351 355 44 50 225 289 241 319 6 11 14 23 18
26 13 10 150 249 204 354 199 392 326 838 364 1281 14 165 6 625 -13 720 -2
11 -7 40 -10 65 -3 25 -7 54 -9 65 -2 11 -11 61 -21 110 -45 244 -121 489
-228 735 -83 192 -166 343 -293 535 -172 259 -356 471 -583 673 -135 119 -144
127 -243 200 -359 266 -760 460 -1181 572 -190 50 -295 69 -577 105 -48 7
-525 16 -531 11z m406 -1110 c712 -60 1373 -447 1774 -1041 61 -90 83 -126
148 -245 75 -135 172 -402 209 -575 25 -114 39 -207 50 -325 6 -62 6 -359 0
-405 -2 -16 -7 -59 -11 -95 -9 -83 -38 -229 -71 -350 -155 -569 -561 -1101
-1074 -1403 -240 -142 -505 -246 -750 -293 -113 -22 -152 -27 -275 -39 -78 -8
-365 -8 -426 0 -30 4 -65 9 -79 10 -338 36 -725 180 -1030 385 -757 508 -1156
1385 -1045 2298 20 159 110 510 138 539 4 3 7 13 7 20 0 43 133 299 235 453
260 393 613 688 1058 885 121 53 370 128 497 149 19 3 46 8 60 11 35 6 113 15
200 21 41 3 76 7 77 7 4 4 242 -2 308 -7z"/>
</g>
</svg>
