<?xml version="1.0" encoding="UTF-8"?>

<svg version="1.2" baseProfile="tiny" width="215.9mm" height="215.9mm" viewBox="0 0 21590 21590" preserveAspectRatio="xMidYMid" fill-rule="evenodd" stroke-width="28.222" stroke-linejoin="round" xmlns="http://www.w3.org/2000/svg" xmlns:ooo="http://xml.openoffice.org/svg/export" xmlns:xlink="http://www.w3.org/1999/xlink" xml:space="preserve">
 <defs class="ClipPathGroup">
  <clipPath id="presentation_clip_path" clipPathUnits="userSpaceOnUse">
   <rect x="0" y="0" width="21590" height="21590"/>
  </clipPath>
 </defs>
 <defs class="TextShapeIndex">
  <g ooo:slide="id1" ooo:id-list="id3"/>
 </defs>
 <defs class="EmbeddedBulletChars">
  <g id="bullet-char-template(57356)" transform="scale(0.00048828125,-0.00048828125)">
   <path d="M 580,1141 L 1163,571 580,0 -4,571 580,1141 Z"/>
  </g>
  <g id="bullet-char-template(57354)" transform="scale(0.00048828125,-0.00048828125)">
   <path d="M 8,1128 L 1137,1128 1137,0 8,0 8,1128 Z"/>
  </g>
  <g id="bullet-char-template(10146)" transform="scale(0.00048828125,-0.00048828125)">
   <path d="M 174,0 L 602,739 174,1481 1456,739 174,0 Z M 1358,739 L 309,1346 659,739 1358,739 Z"/>
  </g>
  <g id="bullet-char-template(10132)" transform="scale(0.00048828125,-0.00048828125)">
   <path d="M 2015,739 L 1276,0 717,0 1260,543 174,543 174,936 1260,936 717,1481 1274,1481 2015,739 Z"/>
  </g>
  <g id="bullet-char-template(10007)" transform="scale(0.00048828125,-0.00048828125)">
   <path d="M 0,-2 C -7,14 -16,27 -25,37 L 356,567 C 262,823 215,952 215,954 215,979 228,992 255,992 264,992 276,990 289,987 310,991 331,999 354,1012 L 381,999 492,748 772,1049 836,1024 860,1049 C 881,1039 901,1025 922,1006 886,937 835,863 770,784 769,783 710,716 594,584 L 774,223 C 774,196 753,168 711,139 L 727,119 C 717,90 699,76 672,76 641,76 570,178 457,381 L 164,-76 C 142,-110 111,-127 72,-127 30,-127 9,-110 8,-76 1,-67 -2,-52 -2,-32 -2,-23 -1,-13 0,-2 Z"/>
  </g>
  <g id="bullet-char-template(10004)" transform="scale(0.00048828125,-0.00048828125)">
   <path d="M 285,-33 C 182,-33 111,30 74,156 52,228 41,333 41,471 41,549 55,616 82,672 116,743 169,778 240,778 293,778 328,747 346,684 L 369,508 C 377,444 397,411 428,410 L 1163,1116 C 1174,1127 1196,1133 1229,1133 1271,1133 1292,1118 1292,1087 L 1292,965 C 1292,929 1282,901 1262,881 L 442,47 C 390,-6 338,-33 285,-33 Z"/>
  </g>
  <g id="bullet-char-template(9679)" transform="scale(0.00048828125,-0.00048828125)">
   <path d="M 813,0 C 632,0 489,54 383,161 276,268 223,411 223,592 223,773 276,916 383,1023 489,1130 632,1184 813,1184 992,1184 1136,1130 1245,1023 1353,916 1407,772 1407,592 1407,412 1353,268 1245,161 1136,54 992,0 813,0 Z"/>
  </g>
  <g id="bullet-char-template(8226)" transform="scale(0.00048828125,-0.00048828125)">
   <path d="M 346,457 C 273,457 209,483 155,535 101,586 74,649 74,723 74,796 101,859 155,911 209,963 273,989 346,989 419,989 480,963 531,910 582,859 608,796 608,723 608,648 583,586 532,535 482,483 420,457 346,457 Z"/>
  </g>
  <g id="bullet-char-template(8211)" transform="scale(0.00048828125,-0.00048828125)">
   <path d="M -4,459 L 1135,459 1135,606 -4,606 -4,459 Z"/>
  </g>
 </defs>
 <defs class="TextEmbeddedBitmaps"/>
 <g>
  <g id="id2" class="Master_Slide">
   <g id="bg-id2" class="Background"/>
   <g id="bo-id2" class="BackgroundObjects"/>
  </g>
 </g>
 <g class="SlideGroup">
  <g>
   <g id="id1" class="Slide" clip-path="url(#presentation_clip_path)">
    <g class="Page">
     <g class="com.sun.star.drawing.PolyPolygonShape">
      <g id="id3">
       <path fill="rgb(255,255,255)" stroke="none" d="M 1379,10109 L 4690,10768 4638,11076 4599,11384 4577,11696 4570,12006 4579,12316 4605,12628 4643,12937 4700,13242 4770,13545 4856,13845 4956,14140 5069,14428 5199,14712 5342,14988 5498,15258 5669,15518 5850,15770 6047,16011 6254,16245 6471,16468 6700,16677 6941,16876 7189,17062 7448,17236 7715,17398 7988,17544 8267,17679 8554,17798 8849,17903 9147,17994 9449,18068 9754,18128 10061,18173 10373,18201 10683,18215 10994,18213 11304,18197 11613,18163 11921,18114 12224,18051 12526,17971 12822,17878 13115,17769 13399,17647 13679,17510 13951,17360 14215,17195 14470,17017 14718,16829 14956,16625 15182,16411 15396,16187 15601,15952 15793,15708 15973,15454 16140,15192 16292,14920 16432,14642 16558,14358 16669,14068 16765,13771 16848,13470 16914,13167 16966,12859 17002,12550 17023,12239 17027,11929 17015,11617 16990,11305 16949,10997 16891,10691 16820,10390 16730,10091 16631,9795 16513,9508 16382,9226 16239,8950 16081,8682 15910,8422 15725,8170 15528,7929 15320,7700 15099,7478 14870,7269 14630,7070 14379,6886 14119,6713 13854,6554 13578,6408 13295,6276 13008,6158 12715,6054 12417,5967 12115,5893 11809,5835 11500,5792 11190,5765 10880,5754 10569,5756 10259,5776 9951,5811 9641,5861 9338,5927 9115,5986 10072,8842 1800,6699 7110,1 8042,2783 8082,2770 8547,2646 9015,2544 9488,2468 9965,2415 10445,2385 10924,2378 11402,2397 11880,2439 12356,2506 12827,2596 13293,2709 13753,2846 14207,3005 14647,3186 15083,3389 15507,3614 15918,3860 16318,4127 16703,4412 17074,4717 17429,5039 17766,5379 18088,5737 18391,6108 18673,6495 18937,6896 19182,7310 19406,7734 19606,8170 19786,8613 19942,9068 20077,9528 20189,9996 20276,10468 20339,10941 20380,11420 20396,11902 20388,12379 20355,12859 20300,13336 20222,13809 20118,14278 19992,14740 19844,15197 19671,15645 19478,16083 19264,16512 19026,16928 18771,17335 18492,17725 18197,18104 17882,18466 17548,18812 17199,19141 16836,19451 16455,19746 16061,20018 15654,20270 15233,20503 14803,20715 14363,20904 13913,21071 13457,21216 12992,21337 12524,21434 12049,21509 11572,21559 11094,21587 10614,21590 10134,21570 9655,21524 9181,21455 8712,21363 8245,21247 7788,21108 7336,20947 6893,20764 6461,20556 6037,20329 5627,20080 5231,19813 4845,19525 4477,19218 4123,18893 3788,18551 3467,18192 3166,17819 2885,17430 2625,17029 2384,16614 2161,16189 1963,15751 1785,15306 1632,14851 1501,14390 1393,13922 1306,13450 1245,12973 1208,12497 1194,12017 1206,11536 1239,11057 1297,10583 1379,10109 Z"/>
      </g>
     </g>
    </g>
   </g>
  </g>
 </g>
</svg>